<svg xmlns="http://www.w3.org/2000/svg" viewBox="0 0 52.04 52.04"><defs><style>.cls-1{fill:none;stroke:#231f20;stroke-linecap:round;stroke-linejoin:round;stroke-width:1.78px;}</style></defs><g id="Layer_2" data-name="Layer 2"><g id="Layer_1-2" data-name="Layer 1"><path class="cls-1" d="M.89,51.15V10.27A9.38,9.38,0,0,1,10.27.89H51.15"/><path class="cls-1" d="M41.77,51.15h-24a7.51,7.51,0,0,1-7.51-7.51V17.74a7.48,7.48,0,0,1,7.47-7.47H51.15V51.15"/><path class="cls-1" d="M41.77,41.77H24.93a5.28,5.28,0,0,1-5.28-5.28V24.93a5.27,5.27,0,0,1,5.28-5.28H41.77"/><line class="cls-1" x1="5.76" y1="30.71" x2="0.89" y2="30.71"/><path class="cls-1" d="M.89,29.18a1.52,1.52,0,0,0,1.53,1.53"/><path class="cls-1" d="M2.42,30.71A1.52,1.52,0,0,0,.89,32.23"/><path class="cls-1" d="M51.15,11.8a1.53,1.53,0,0,0-1.53-1.53"/></g></g></svg>