<svg xmlns="http://www.w3.org/2000/svg" viewBox="0 0 141.82 62.02"><defs><style>.cls-1{font-size:21.37px;fill:#231f20;font-family:DiazoMVBExCond-Light, Diazo MVB Ex Cond;font-weight:300;}.cls-2{letter-spacing:-0.04em;}.cls-3{letter-spacing:-0.02em;}.cls-4{letter-spacing:-0.02em;}.cls-5{letter-spacing:0.01em;}.cls-6{letter-spacing:0em;}.cls-7{letter-spacing:0em;}.cls-8{fill:none;stroke:#231f20;stroke-linecap:round;stroke-linejoin:round;stroke-width:1.78px;}</style></defs><g id="Layer_2" data-name="Layer 2"><g id="Layer_1-2" data-name="Layer 1"><text class="cls-1" transform="translate(59 18.17)">fen<tspan class="cls-2" x="25.82" y="0">t</tspan><tspan x="32.27" y="0">any</tspan><tspan class="cls-3" x="59.12" y="0">l</tspan></text><text class="cls-1" transform="translate(59.32 37.65)"><tspan class="cls-4">aw</tspan><tspan x="21.27" y="0">are</tspan><tspan class="cls-5" x="47.58" y="0">n</tspan><tspan class="cls-6" x="57.6" y="0">e</tspan><tspan x="65.7" y="0">ss</tspan></text><text class="cls-1" transform="translate(59.32 57.13)">c<tspan class="cls-7" x="8.68" y="0">o</tspan><tspan x="17.7" y="0">alition</tspan></text><path class="cls-8" d="M.89,53.46V12.58A9.38,9.38,0,0,1,10.27,3.2H51.15"/><path class="cls-8" d="M41.77,53.46h-24A7.51,7.51,0,0,1,10.27,46V20.05a7.47,7.47,0,0,1,7.47-7.47H51.15V53.46"/><path class="cls-8" d="M41.77,44.07H24.93a5.27,5.27,0,0,1-5.28-5.27V27.23A5.27,5.27,0,0,1,24.93,22H41.77"/><line class="cls-8" x1="5.76" y1="33.02" x2="0.89" y2="33.02"/><path class="cls-8" d="M.89,31.49A1.52,1.52,0,0,0,2.42,33"/><path class="cls-8" d="M2.42,33A1.52,1.52,0,0,0,.89,34.54"/><path class="cls-8" d="M51.15,14.11a1.53,1.53,0,0,0-1.53-1.53"/></g></g></svg>